<?xml version="1.0" encoding="iso-8859-1"?>
<!-- Uploaded to: SVG Repo, www.svgrepo.com, Generator: SVG Repo Mixer Tools -->
<svg height="800px" width="800px" version="1.1" id="Layer_1" xmlns="http://www.w3.org/2000/svg" xmlns:xlink="http://www.w3.org/1999/xlink" 
	 viewBox="0 0 512 512" xml:space="preserve">
<g>
	<path style="fill:#2D527C;" d="M60.76,139.883c-7.812,0-14.144-6.334-14.144-14.144V60.761c0-7.81,6.332-14.144,14.144-14.144
		h64.98c7.812,0,14.144,6.334,14.144,14.144s-6.332,14.144-14.144,14.144H74.903v50.835
		C74.903,133.551,68.571,139.883,60.76,139.883z"/>
	<path style="fill:#2D527C;" d="M451.239,465.383H386.26c-7.81,0-14.144-6.334-14.144-14.144s6.334-14.144,14.144-14.144h50.835
		V386.26c0-7.81,6.334-14.144,14.144-14.144c7.81,0,14.144,6.334,14.144,14.144v64.979
		C465.383,459.05,459.05,465.383,451.239,465.383z"/>
	<path style="fill:#2D527C;" d="M497.856,512H14.144C6.332,512,0,505.667,0,497.856V14.144C0,6.334,6.332,0,14.144,0h483.713
		C505.667,0,512,6.334,512,14.144v483.713C512,505.667,505.667,512,497.856,512z M28.287,483.713h455.425V28.287H28.287V483.713z"/>
</g>
<path style="fill:#CEE8FA;" d="M376.788,234.691l51.94-48.234l-52.199-90.106L245.196,296.352l-29.618-30.765
	c2.718-7.365,4.208-15.326,4.208-23.635c0-37.697-30.56-68.257-68.257-68.257s-68.257,30.56-68.257,68.257
	s30.56,68.257,68.257,68.257c8.107,0,15.882-1.421,23.095-4.015l68.143,52.955l82.351-76.475"/>
<path style="fill:#2D527C;" d="M440.966,179.368l-52.197-90.106c-2.458-4.243-6.94-6.912-11.842-7.048
	c-4.868-0.124-9.526,2.274-12.219,6.375l-45.23,68.878l-66.593-66.593c-5.525-5.52-14.479-5.522-20.002,0l-69.539,69.537
	c-3.861-0.557-7.804-0.86-11.817-0.86c-45.436,0-82.401,36.964-82.401,82.401c0,37.335,24.966,68.93,59.075,79.018l104.681,104.68
	c2.761,2.761,6.382,4.143,10.001,4.143s7.24-1.382,10.001-4.143L410.27,268.265c5.523-5.523,5.523-14.479,0-20.003l-13.149-13.151
	l41.23-38.287C443.193,192.328,444.276,185.084,440.966,179.368z M242.886,120.877l60.736,60.737L243.1,273.78l-11.571-12.019
	c1.595-6.454,2.402-13.086,2.402-19.81c0-30.33-16.483-56.866-40.949-71.171L242.886,120.877z M367.165,224.327
	c-0.074,0.068-0.134,0.143-0.207,0.211c-0.071,0.068-0.146,0.126-0.215,0.195c-0.12,0.12-0.225,0.252-0.339,0.376
	c-0.127,0.139-0.256,0.274-0.376,0.417c-0.228,0.264-0.44,0.535-0.645,0.812c-0.055,0.076-0.113,0.151-0.167,0.228
	c-3.921,5.522-3.421,13.22,1.529,18.17l13.526,13.526L242.886,395.645l-73.321-73.319c0.719-0.161,1.444-0.294,2.158-0.474
	l62.366,48.466c2.563,1.99,5.624,2.976,8.676,2.976c3.468,0,6.925-1.27,9.628-3.779l82.351-76.473
	c5.724-5.317,6.055-14.265,0.74-19.989c-5.317-5.727-14.268-6.052-19.989-0.74l-73.541,68.293l-58.649-45.578
	c-3.826-2.974-8.906-3.779-13.465-2.141c-5.87,2.11-12.031,3.181-18.309,3.181c-29.839,0-54.114-24.275-54.114-54.114
	s24.276-54.114,54.114-54.114s54.114,24.275,54.114,54.114c0,6.442-1.122,12.746-3.332,18.739c-1.877,5.087-0.68,10.8,3.08,14.705
	l29.618,30.765c2.983,3.096,7.216,4.658,11.497,4.273c4.283-0.397,8.152-2.724,10.514-6.319l76.496-116.491
	c0.042-0.064,0.085-0.127,0.126-0.191l42.135-64.165l35.054,60.509L367.165,224.327z"/>
</svg>